<svg id="Design_1_" xmlns="http://www.w3.org/2000/svg" viewBox="0 0 67 66"><style>.st0{fill-rule:evenodd;clip-rule:evenodd}</style><path class="st0" d="M60.2 13.4l.9.9 1.1-1.1c2.6-2.6 2.6-6.7 0-9.3-2.6-2.6-6.7-2.6-9.3 0L51.8 5l-17 17-22-22L0 12.7l22 22L5.1 51.6c-.2.2-.3.4-.3.6L2 62.3c-.1.5 0 1 .3 1.3.3.3.7.4 1 .4h.4l10.1-2.7.6-.3 46.7-46.6-.9-1zm-56.4-.7l8.9-8.9L14.9 6l-1.7 1.7 1.9 1.9 1.7-1.7 2.1 2.1-3.1 3.1 1.9 1.9 3.1-3.1 2.1 2.1-1.7 1.7 1.9 1.9 1.7-1.7 2.1 2.1-2.9 3.3 1.9 1.9 3.1-3.1 2.1 2.1-1.7 1.8 1.7 1.7-7.1 7.1L3.8 12.7zm9 46l-5.5-5.5L53.7 6.9l5.5 5.5-46.4 46.3zm32.4-26.3l-1 1-2.7 2.7 1.9 1.9 1.7-1.7 2.1 2.1-3.1 3.1 1.9 1.9 3.1-3.1 2.1 2.1-1.7 1.7 1.9 1.9 1.7-1.7 2.1 2.1-3.1 3.1 1.9 1.9 3.1-3.1 2.1 2.1-1.7 1.7 1.9 1.9 1.7-1.7.9.9-8.9 8.9-19-19-1.9 1.9 21.2 21 12.7-12.7-20.9-20.9z" id="Design"/></svg>