<svg id="Engineering_1_" xmlns="http://www.w3.org/2000/svg" viewBox="0 0 78 78"><style>.st0{fill-rule:evenodd;clip-rule:evenodd}</style><path class="st0" d="M76.2 33.3L68 32c-.7-2.7-1.8-5.2-3.2-7.6l4.8-6.8c.4-.6.4-1.4-.2-2l-6.5-6.5c-.5-.5-1.4-.6-2-.2l-6.8 4.9c-2.4-1.4-5-2.5-7.7-3.2L45 2.3c-.2-.8-.8-1.3-1.5-1.3h-9.3c-.8 0-1.4.5-1.5 1.3l-1.3 8.2c-2.6.7-5.2 1.7-7.6 3.1L17 8.7c-.6-.4-1.5-.4-2 .2l-6.5 6.5c-.5.5-.6 1.4-.2 2l4.8 6.9c-1.4 2.4-2.5 4.9-3.2 7.6l-8.2 1.4c-.7.1-1.3.8-1.3 1.5V44c0 .7.5 1.4 1.3 1.5L9.9 47c.7 2.7 1.7 5.2 3.2 7.6l-4.9 6.8c-.4.6-.4 1.5.2 2l6.5 6.5c.5.5 1.4.6 2 .2l6.9-4.8c2.4 1.4 4.9 2.5 7.6 3.2l1.4 8.2c.1.7.8 1.3 1.5 1.3h9.3c.7 0 1.4-.5 1.5-1.3l1.5-8.2c2.7-.7 5.3-1.8 7.7-3.2l6.9 4.8c.6.4 1.4.4 2-.2l6.5-6.5c.5-.5.6-1.4.2-2L65 54.6c1.4-2.4 2.5-5 3.2-7.6l8.2-1.4c.7-.1 1.3-.8 1.3-1.5v-9.2c-.2-.9-.8-1.5-1.5-1.6zm-1.8 9.4l-8 1.4c-.6.1-1.1.6-1.2 1.2-.7 3-1.9 5.9-3.6 8.6-.3.5-.3 1.2 0 1.7l4.7 6.5-4.7 4.7-6.6-4.6c-.5-.4-1.2-.4-1.7 0-2.7 1.7-5.5 2.9-8.6 3.6-.6.1-1.1.6-1.2 1.2l-1.4 8h-6.7l-1.3-8c-.1-.6-.6-1.1-1.2-1.2-3-.7-5.9-1.9-8.5-3.5-.5-.3-1.2-.3-1.7 0l-6.6 4.6-4.7-4.7 4.7-6.6c.4-.5.4-1.2 0-1.7-1.7-2.6-2.9-5.5-3.5-8.5-.1-.6-.6-1.1-1.2-1.2l-8-1.4v-6.6l8-1.3c.6-.1 1.1-.6 1.3-1.2.7-3 1.9-5.9 3.5-8.5.3-.5.3-1.2 0-1.7l-4.6-6.6 4.7-4.7 6.6 4.7c.5.4 1.2.4 1.7 0 2.6-1.7 5.5-2.9 8.5-3.5.6-.1 1.1-.6 1.2-1.3l1.3-7.9h6.6l1.4 7.9c.1.6.6 1.1 1.2 1.2 3 .7 5.9 1.9 8.6 3.6.5.3 1.2.3 1.7 0l6.5-4.7 4.7 4.7-4.6 6.6c-.4.5-.4 1.2 0 1.7 1.7 2.6 2.9 5.5 3.6 8.6.1.6.6 1.1 1.3 1.2l7.9 1.3v6.4zm-35.5-14c-6 0-10.8 4.8-10.8 10.8 0 5.9 4.8 10.8 10.8 10.8 6 0 10.8-4.8 10.8-10.8 0-6-4.8-10.8-10.8-10.8zm0 18.5c-4.3 0-7.7-3.5-7.7-7.7s3.5-7.7 7.7-7.7c4.3 0 7.7 3.5 7.7 7.7s-3.4 7.7-7.7 7.7zm0-29.3c-11.9 0-21.6 9.7-21.6 21.6C17.3 51.4 27 61 38.9 61c11.9 0 21.6-9.7 21.6-21.6 0-11.8-9.7-21.5-21.6-21.5zm0 40.1c-10.2 0-18.5-8.3-18.5-18.5S28.7 21 38.9 21s18.5 8.3 18.5 18.5S49.1 58 38.9 58z" id="Engineering"/></svg>