<svg id="Compas_1_" xmlns="http://www.w3.org/2000/svg" viewBox="0 0 81 81"><style>.st0{fill-rule:evenodd;clip-rule:evenodd}</style><path class="st0" d="M60.1 18.8L35.5 35.1c-.2.1-.3.3-.4.4L18.8 60.1c-.4.6-.3 1.4.2 1.9.3.3.7.4 1.1.4.3 0 .6-.1.8-.3l24.5-16.3c.2-.1.3-.3.4-.4l16.3-24.5c.4-.6.3-1.4-.2-1.9-.4-.5-1.2-.6-1.8-.2zM25.5 55.5l11.9-18 6 6-17.9 12zM40.5 0C18.2 0 0 18.2 0 40.5S18.2 81 40.5 81 81 62.8 81 40.5 62.8 0 40.5 0zm1.6 77.7v-1.6c0-.9-.7-1.6-1.6-1.6-.9 0-1.6.7-1.6 1.6v1.6C19.6 76.9 4.1 61.4 3.3 42.1h1.6c.9 0 1.6-.7 1.6-1.6 0-.9-.7-1.6-1.6-1.6H3.3C4.1 19.6 19.6 4.1 38.9 3.3v1.6c0 .9.7 1.6 1.6 1.6.9 0 1.6-.7 1.6-1.6V3.3c19.3.8 34.8 16.3 35.6 35.6h-1.6c-.9 0-1.6.7-1.6 1.6 0 .9.7 1.6 1.6 1.6h1.6c-.8 19.3-16.3 34.8-35.6 35.6z" id="Compas"/></svg>