<svg id="Office_Lamp_1_" xmlns="http://www.w3.org/2000/svg" viewBox="0 0 73 73"><style>.st0{fill-rule:evenodd;clip-rule:evenodd}</style><path class="st0" d="M73 33.6c0-3.6-2.6-6.6-6-7.2L52.5 9.6v-.8c0-4-3.3-7.3-7.3-7.3-2.4 0-4.5 1.1-5.8 2.9L25.9 5.6c-1-3.1-3.8-5.4-7.3-5.6h-.7c-4.3.2-7.7 3.7-7.7 8v7.3C4.2 19 0 26.5 0 33.7c0 .4.1.7.4 1 .4.5 4.5 4.7 17.9 4.7 13.5 0 17.5-4.2 17.9-4.7.2-.3.3-.6.3-.9 0-7.3-4.2-14.7-10.2-18.4v-.9l13.2-1.2c1.3 1.8 3.4 2.9 5.8 2.9.4 0 .8 0 1.2-.1L59 30.6c-.4.9-.6 1.9-.6 3 0 1.3.4 2.6 1 3.7l-15.8 24H33.4c-3.9 0-7.1 3.3-7.1 7.3v2.9c0 .8.7 1.5 1.5 1.5h39.4c.8 0 1.5-.7 1.5-1.5v-2.9c0-4-3.2-7.3-7.1-7.3H54l13.5-20.7c3.1-.7 5.5-3.6 5.5-7zM13.1 8c0-2.7 2.1-5 4.9-5.1h.4c2.6.1 4.6 2 4.9 4.4v8.5c-3.2.3-7 .3-10.2 0V8zm20.5 25.1c-1.2.9-5.3 3.4-15.3 3.4S4.2 34 3 33.1c.2-5.6 3.4-11.4 7.8-14.7 2.3.3 4.8.5 7.5.5s5.2-.2 7.5-.5c4.4 3.3 7.5 9.1 7.8 14.7zm-7.3-21.7V8.5l11.8-1.1c-.1.4-.1.9-.1 1.3 0 .6.1 1.1.2 1.6l-11.9 1.1zm19 1.7c-1.6 0-3-.9-3.8-2.2v-.1c-.3-.6-.5-1.4-.5-2.1 0-.8.2-1.6.6-2.2v-.1c.8-1.3 2.2-2.1 3.7-2.1 2.4 0 4.4 2 4.4 4.4 0 .3 0 .6-.1.9v.1c-.5 2-2.3 3.4-4.3 3.4zm4 1.7c.8-.5 1.5-1.3 2.1-2.1l12 13.9c-1 .3-1.8.8-2.6 1.5L49.3 14.8zm12.2 49.4c2.3 0 4.2 2 4.2 4.4v1.5H29.2v-1.5c0-2.4 1.9-4.4 4.2-4.4h28.1zm-11-2.9H47l14.3-21.8c.8.6 1.6 1 2.6 1.2L50.5 61.3zm15.8-23.4h-.6c-2.4 0-4.4-2-4.4-4.4 0-2.4 2-4.4 4.4-4.4h.5c2.2.3 3.9 2.1 3.9 4.4 0 2.3-1.6 4.1-3.8 4.4.1 0 .1 0 0 0z" id="Office_Lamp"/></svg>