<svg id="Password2_1_" xmlns="http://www.w3.org/2000/svg" viewBox="0 0 73 74"><style>.st0{fill-rule:evenodd;clip-rule:evenodd}</style><path class="st0" d="M59.8 13.4c-3.1-3.2-6.8-4.9-10.3-4.9-3 0-5.7 1.2-8.1 3.6-2.6 2.7-3.8 5.9-3.5 9.4.3 3.2 2 6.5 4.8 9.3 3.1 3.2 6.8 4.9 10.3 4.9 3 0 5.7-1.2 8.1-3.6 2.6-2.7 3.8-5.9 3.5-9.4-.3-3.2-2-6.5-4.8-9.3zM59 30c-1.8 1.8-3.8 2.7-6 2.7-2.8 0-5.7-1.4-8.3-4-2.3-2.3-3.7-5-3.9-7.5-.3-2.5.7-4.9 2.6-7 1.8-1.8 3.8-2.7 6-2.7 2.8 0 5.7 1.4 8.3 4 2.3 2.3 3.7 5 3.9 7.5.3 2.5-.6 4.9-2.6 7zm13.9-7.5c-.5-5.2-3.2-10.4-7.5-14.8C60.6 2.7 54.7 0 48.9 0c-5 0-9.7 2.1-13.6 6-4.4 4.4-6.4 9.9-5.8 15.7.3 3.4 1.6 6.9 3.7 10.1L14 51.3l-2.5-2.5c-.8-.8-1.7-1.2-2.6-1.2-1.7 0-2.9 1.3-4.2 2.6l-2 2C1.3 53.5 0 54.8 0 56.5c0 .9.4 1.8 1.2 2.7l2.5 2.5-1.9 2C.6 64.8 0 66.3 0 67.9s.6 3.1 1.8 4.3C2.9 73.4 4.5 74 6 74s3.1-.6 4.2-1.8l31.5-31.9c3.7 2.5 7.8 3.8 11.8 3.8 5 0 9.7-2.1 13.6-6 4.4-4.4 6.4-9.8 5.8-15.6zM3.3 57.1c-.2-.2-.4-.5-.4-.6 0-.5 1-1.5 1.7-2.2l2-2c.7-.7 1.7-1.7 2.2-1.7.1 0 .3.1.6.4l2.5 2.5-6.1 6.2-2.5-2.6zm4.9 13c-1.2 1.2-3.1 1.2-4.3 0-.6-.6-.9-1.4-.9-2.2 0-.8.3-1.6.9-2.2L35 34.1c.6.8 1.3 1.6 2.1 2.3.7.7 1.5 1.4 2.3 2.1L8.2 70.1zm56.9-34c-3.3 3.3-7.3 5.1-11.5 5.1-5 0-10.1-2.4-14.4-6.8-3.8-3.9-6.2-8.5-6.6-13-.6-5 1.1-9.6 4.8-13.4 3.3-3.3 7.3-5 11.5-5 5 0 10.1 2.4 14.4 6.8 3.8 3.9 6.2 8.5 6.6 13 .6 4.9-1.1 9.5-4.8 13.3z" id="Password2"/></svg>